<?xml version="1.0" encoding="UTF-8" standalone="no"?> <svg id="Outline" xmlns="http://www.w3.org/2000/svg" viewBox="0 0 64 64"><path d="M13.12,55H50.88A7.009,7.009,0,0,0,58,48.125V35.875A7.009,7.009,0,0,0,50.88,29H13.12A7.009,7.009,0,0,0,6,35.875v12.25A7.009,7.009,0,0,0,13.12,55ZM8,35.875A5.008,5.008,0,0,1,13.12,31H50.88A5.008,5.008,0,0,1,56,35.875v12.25A5.008,5.008,0,0,1,50.88,53H13.12A5.008,5.008,0,0,1,8,48.125Z"/><path d="M6.143,58v1H57.857V58A3.078,3.078,0,0,1,61,55h1V29H61a3.078,3.078,0,0,1-3.143-3V25H56.333l1.933-2.03-.714-.689a3.14,3.14,0,0,1,0-4.562L58.3,17,43.393,2.61,42.267,3.7a2.877,2.877,0,0,1-3.962,0L37.169,2.6,14.588,25H6.143v1A3.078,3.078,0,0,1,3,29H2V55H3A3.078,3.078,0,0,1,6.143,58ZM37.2,5.388a4.9,4.9,0,0,0,6.184-.008L55.489,17.069a5.131,5.131,0,0,0,.023,5.893L53.571,25h-2.53a5.606,5.606,0,0,0-.06-8.063L43.408,9.624a6.04,6.04,0,0,0-8.325.01L19.588,25h-2.16ZM41.674,25H38.305A6.969,6.969,0,0,0,25.7,25H22.428L36.481,11.063a4.021,4.021,0,0,1,5.538,0l7.573,7.313a3.613,3.613,0,0,1,0,5.249L48.167,25H43.754L39.961,11.725l-1.922.55ZM36,25H28a5,5,0,0,1,8,0ZM4,30.905A5.091,5.091,0,0,0,8.04,27H55.96A5.091,5.091,0,0,0,60,30.905V53.1A5.091,5.091,0,0,0,55.96,57H8.04A5.091,5.091,0,0,0,4,53.1Z"/><path d="M25.691,51.63,32,47.205l6.309,4.425L35.9,44.469,42.27,40H34.4L32,32.882,29.6,40H21.73L28.1,44.469ZM28.063,42h2.979L32,39.152,32.958,42h2.979l-2.41,1.69.944,2.805L32,44.761,29.529,46.5l.944-2.8Z"/><rect x="14.428" y="33.991" width="2" height="18.018" transform="translate(-18.046 11.911) rotate(-27.378)"/><rect x="38.36" y="41.5" width="19.388" height="2" transform="translate(-12.318 64.196) rotate(-61.258)"/></svg>

