<svg xmlns="http://www.w3.org/2000/svg" version="1.1" xmlns:xlink="http://www.w3.org/1999/xlink" xmlns:svgjs="http://svgjs.dev/svgjs" width="1000" height="623" viewBox="0 0 1000 623"><g transform="matrix(1,0,0,1,-0.6060604382972201,0.2522267206477409)"><svg viewBox="0 0 396 247" data-background-color="#ffffff" preserveAspectRatio="xMidYMid meet" height="623" width="1000" xmlns="http://www.w3.org/2000/svg" xmlns:xlink="http://www.w3.org/1999/xlink"><defs></defs><g id="tight-bounds" transform="matrix(1,0,0,1,0.24000006643427696,-0.09999999999999432)"><svg viewBox="0 0 395.52 247.2" height="247.2" width="395.52"><g><svg></svg></g><g><svg viewBox="0 0 395.52 247.2" height="247.2" width="395.52"><g><path d="M55.039 247.2l46.944-81.31h4.119l-44.772 77.547h272.86l-44.772-77.547h4.119l46.944 81.31zM197.76 0l46.944 81.31-4.118 0-42.826-74.176-42.826 74.176h-4.118z" fill="#05c3f9" data-fill-palette-color="tertiary"></path></g><g transform="matrix(1,0,0,1,0,93.39286681715575)"><svg viewBox="0 0 395.52 60.41426636568848" height="60.41426636568848" width="395.52"><g><svg viewBox="0 0 395.52 60.41426636568848" height="60.41426636568848" width="395.52"><g><svg viewBox="0 0 395.52 60.41426636568848" height="60.41426636568848" width="395.52"><g><svg viewBox="0 0 395.52 60.41426636568848" height="60.41426636568848" width="395.52"><g><svg viewBox="0 0 395.52 60.41426636568848" height="60.41426636568848" width="395.52"><g transform="matrix(1,0,0,1,0,0)"><svg width="395.52" viewBox="3.4200000762939453 -34.689998626708984 227.11000061035156 34.689998626708984" height="60.41426636568848" data-palette-color="#05c3f9"><path d="M16.82 0L3.42-34.69 10.47-34.69 20.68-6.62 30.86-34.69 37.55-34.69 24.12 0 16.82 0ZM72.17-24.76L72.17-24.76Q72.17-23.1 71.76-21.59 71.36-20.09 70.49-18.7 69.63-17.31 68.12-16.21 66.62-15.11 64.57-14.5L64.57-14.5 75.05 0 67.04 0 57.32-13.45 51.44-13.45 51.44 0 45.29 0 45.29-34.69 60.06-34.69Q61.15-34.69 62.07-34.63 62.99-34.57 64.29-34.34 65.6-34.11 66.61-33.72 67.62-33.33 68.71-32.57 69.8-31.81 70.52-30.8 71.24-29.79 71.7-28.23 72.17-26.68 72.17-24.76ZM58.25-29.05L51.44-29.05 51.44-19.12 57.1-19.12Q58.57-19.12 59.69-19.21 60.81-19.31 62.01-19.62 63.21-19.92 63.97-20.46 64.74-21 65.24-21.95 65.74-22.9 65.74-24.19L65.74-24.19Q65.74-29.05 58.25-29.05L58.25-29.05ZM84.37 0L84.37-34.69 90.52-34.69 90.52-5.64 108.1-5.64 108.1 0 84.37 0ZM112.13 0L125.87-34.69 132.61-34.69 146.33 0 140.01 0 136.13-9.08 121.97-9.08 118.08 0 112.13 0ZM124.09-14.72L133.98-14.72 129.05-27.59 124.09-14.72ZM153.8 0L153.8-34.69 160.59-34.69 179.95-8.03 179.95-34.69 186.1-34.69 186.1 0 179.24 0 159.95-26.71 159.95 0 153.8 0ZM210.97-29.03L210.97-29.03 204.65-29.03 204.65-5.66 209.12-5.66Q210.8-5.66 211.9-5.71 213-5.76 214.78-6.05 216.56-6.35 217.82-6.87 219.08-7.4 220.43-8.46 221.79-9.52 222.69-11.04L222.69-11.04Q224.35-13.82 224.35-17.55L224.35-17.55Q224.35-19.7 223.75-21.51 223.16-23.32 222.17-24.55 221.18-25.78 219.85-26.71 218.52-27.64 217.15-28.15 215.78-28.66 214.34-28.86L214.34-28.86Q213.12-29.03 210.97-29.03ZM198.5-34.69L210.8-34.69Q214.07-34.69 216.83-34.18 219.59-33.67 221.59-32.79 223.6-31.91 225.16-30.66 226.72-29.42 227.72-28 228.72-26.59 229.37-24.93 230.02-23.27 230.27-21.67 230.53-20.07 230.53-18.36L230.53-18.36Q230.53-16.11 230.16-14.03 229.8-11.94 228.87-9.78 227.94-7.62 226.49-5.9 225.04-4.17 222.7-2.8 220.37-1.42 217.37-0.76L217.37-0.76Q215.83-0.42 213.95-0.23 212.07-0.05 210.86-0.02 209.66 0 207.48 0L207.48 0 198.5 0 198.5-34.69Z" opacity="1" transform="matrix(1,0,0,1,0,0)" fill="#05c3f9" class="undefined-text-0" data-fill-palette-color="primary" id="text-0"></path></svg></g></svg></g></svg></g></svg></g></svg></g></svg></g></svg></g></svg><rect width="395.52" height="247.2" fill="none" stroke="none" visibility="hidden"></rect></g></svg></g></svg>